<?xml version="1.0" encoding="UTF-8" standalone="no"?>
<!-- Created with Inkscape (http://www.inkscape.org/) -->

<svg
   xmlns:dc="http://purl.org/dc/elements/1.1/"
   xmlns:cc="http://creativecommons.org/ns#"
   xmlns:rdf="http://www.w3.org/1999/02/22-rdf-syntax-ns#"
   xmlns:svg="http://www.w3.org/2000/svg"
   xmlns="http://www.w3.org/2000/svg"
   xmlns:sodipodi="http://sodipodi.sourceforge.net/DTD/sodipodi-0.dtd"
   xmlns:inkscape="http://www.inkscape.org/namespaces/inkscape"
   inkscape:version="0.92.3 (2405546, 2018-03-11)"
   sodipodi:docname="dessin.svg"
   id="svg4779"
   version="1.1"
   viewBox="0 0 210 297"
   height="297mm"
   width="210mm"
   inkscape:export-filename="C:\Users\Clovis\Desktop\pioche_bas.png"
   inkscape:export-xdpi="96"
   inkscape:export-ydpi="96">
  <sodipodi:namedview
     inkscape:window-maximized="1"
     inkscape:window-y="-8"
     inkscape:window-x="-8"
     inkscape:window-height="1057"
     inkscape:window-width="1920"
     showgrid="false"
     inkscape:current-layer="g6301"
     inkscape:document-units="mm"
     inkscape:cy="176.14729"
     inkscape:cx="-106.51632"
     inkscape:zoom="0.49497475"
     inkscape:pageshadow="2"
     inkscape:pageopacity="0.0"
     borderopacity="1.0"
     bordercolor="#666666"
     pagecolor="#ffffff"
     id="base" />
  <defs
     id="defs4773" />
  <metadata
     id="metadata4776">
    <rdf:RDF>
      <cc:Work
         rdf:about="">
        <dc:format>image/svg+xml</dc:format>
        <dc:type
           rdf:resource="http://purl.org/dc/dcmitype/StillImage" />
      </cc:Work>
    </rdf:RDF>
  </metadata>
  <g
     style="display:inline"
     inkscape:label="Calque 1"
     inkscape:groupmode="layer"
     id="layer1">
    <g
       id="g6121"
       inkscape:label="Planche dessous">
      <g
         style="display:inline;fill:#3e2828;fill-opacity:1;stroke:none"
         id="g5872"
         inkscape:label="Planche dessus"
         transform="matrix(-1.1676563,0,0,-1.1555345,242.93581,430.41971)">
        <path
           inkscape:connector-curvature="0"
           id="rect5860"
           transform="matrix(-0.2265935,0,0,-0.22897052,208.05421,372.48538)"
           d="M 130.84766,420.46289 V 753.91797 1087.373 h 36.95117 a 190.491,193.18254 0 0 0 0.83789,1.0235 h 283.04297 a 190.491,193.18254 0 0 0 0.82226,-1.0235 H 714.67773 V 753.91797 686.76758 567.25586 420.46484 v -0.002 h -291.30468 -0.60938 z"
           style="opacity:1;fill:#3e2828;fill-opacity:1;fill-rule:nonzero;stroke:none;stroke-width:3.48473883;stroke-miterlimit:4;stroke-dasharray:none;stroke-opacity:1" />
      </g>
      <g
         inkscape:label="Planche dessus"
         id="g5715">
        <rect
           style="display:inline;opacity:1;fill:#593a39;fill-opacity:1;fill-rule:nonzero;stroke:none;stroke-width:0.87312502;stroke-miterlimit:4;stroke-dasharray:none;stroke-opacity:1"
           id="rect5385-5"
           width="145.52084"
           height="167.97263"
           x="39.15836"
           y="115.84327" />
        <rect
           style="opacity:1;fill:#ce6b5a;fill-opacity:1;fill-rule:nonzero;stroke:none;stroke-width:0.79374999;stroke-miterlimit:4;stroke-dasharray:none;stroke-opacity:1"
           id="rect5385"
           width="132.29167"
           height="152.70239"
           x="46.113098"
           y="123.50893" />
        <path
           style="opacity:1;fill:#ffde94;fill-opacity:1;fill-rule:nonzero;stroke:none;stroke-width:0.8405987;stroke-miterlimit:4;stroke-dasharray:none;stroke-opacity:1"
           d="m 105.70672,123.55813 a 43.164024,44.233107 0 0 0 -11.093375,29.53359 43.164024,44.233107 0 0 0 43.164295,44.23296 43.164024,44.233107 0 0 0 40.49106,-29.07006 v -30.38781 a 43.164024,44.233107 0 0 0 -8.42636,-14.30868 z"
           id="path5523"
           inkscape:connector-curvature="0" />
        <path
           style="opacity:1;fill:#ffde94;fill-opacity:1;fill-rule:nonzero;stroke:none;stroke-width:9.8727169;stroke-miterlimit:4;stroke-dasharray:none;stroke-opacity:1"
           d="M 174.28516,813.49023 V 916.91602 A 506.31711,431.20422 0 0 1 423.76367,1043.9492 H 558.15039 A 595.98977,528.12457 0 0 0 174.28516,813.49023 Z"
           transform="scale(0.26458333)"
           id="path5525"
           inkscape:connector-curvature="0" />
        <ellipse
           style="opacity:1;fill:#ce6b5a;fill-opacity:1;fill-rule:nonzero;stroke:none;stroke-width:0.36394632;stroke-miterlimit:4;stroke-dasharray:none;stroke-opacity:1"
           id="path5523-2"
           cx="137.9111"
           cy="152.43532"
           rx="16.437071"
           ry="21.774189" />
        <path
           style="opacity:1;fill:#4d3b40;fill-opacity:0.74489794;fill-rule:nonzero;stroke:none;stroke-width:0.79374999;stroke-miterlimit:4;stroke-dasharray:none;stroke-opacity:1"
           d="m 46.113098,123.50893 v 76.3514 a 66.145836,76.351188 0 0 1 66.145832,-76.3514 z m 66.145832,0 a 66.145836,76.351188 0 0 1 66.14584,76.3514 v -76.3514 z m 66.14584,76.3514 a 66.145836,76.351188 0 0 1 -66.14584,76.35141 h 66.14584 z m -66.14584,76.35141 A 66.145836,76.351188 0 0 1 46.113098,199.86033 v 76.35141 z"
           id="rect5385-8"
           inkscape:connector-curvature="0" />
        <path
           style="opacity:1;fill:#4d3b40;fill-opacity:0.28061224;fill-rule:nonzero;stroke:none;stroke-width:0.79374999;stroke-miterlimit:4;stroke-dasharray:none;stroke-opacity:1"
           d="m 112.25893,123.50893 a 66.145836,76.351188 0 0 0 -66.145833,76.35141 66.145836,76.351188 0 0 0 66.145833,76.35141 66.145836,76.351188 0 0 0 66.14584,-76.35141 66.145836,76.351188 0 0 0 -66.14584,-76.35141 z m 0.80253,20.49229 a 48.23914,55.681748 0 0 1 48.23892,55.68135 48.23914,55.681748 0 0 1 -48.23892,55.68188 48.23914,55.681748 0 0 1 -48.239429,-55.68188 48.23914,55.681748 0 0 1 48.239429,-55.68135 z"
           id="rect5385-3"
           inkscape:connector-curvature="0" />
        <ellipse
           ry="31.938707"
           rx="37.685001"
           cy="272.01028"
           cx="117.33132"
           id="path6100"
           style="opacity:0.81800022;fill:#000000;fill-opacity:0;fill-rule:nonzero;stroke:none;stroke-width:0.79374999;stroke-miterlimit:4;stroke-dasharray:none;stroke-opacity:1" />
        <path
           inkscape:connector-curvature="0"
           inkscape:label="path5803"
           id="path5803"
           transform="scale(0.26458333)"
           d="m 148,437.83203 26.28516,28.97266 z m 550,0 -23.71484,28.97266 z M 174.28516,1043.9492 148,1072.6895 Z m 500,0 L 698,1072.6895 Z"
           style="opacity:1;fill:none;stroke:#6e4746;stroke-width:0.99999994px;stroke-linecap:butt;stroke-linejoin:miter;stroke-opacity:1" />
      </g>
    </g>
    <path
       style="opacity:1;fill:#dd8d1a;fill-opacity:1;fill-rule:nonzero;stroke:#b16400;stroke-width:0.86229903;stroke-miterlimit:4;stroke-dasharray:none;stroke-opacity:1"
       d="m 99.52829,123.94318 v 33.16748 a 12.37872,7.7485117 0 0 0 -0.120407,1.01751 12.37872,7.7485117 0 0 0 12.378577,7.74837 12.37872,7.7485117 0 0 0 12.37857,-7.74837 12.37872,7.7485117 0 0 0 -0.0202,-0.35863 h 0.0388 v -33.82636 z"
       id="path6303"
       inkscape:connector-curvature="0" />
    <rect
       style="opacity:1;fill:#dd8d1a;fill-opacity:1;fill-rule:nonzero;stroke:none;stroke-width:0.47137988;stroke-miterlimit:4;stroke-dasharray:none;stroke-opacity:1"
       id="rect6123"
       width="14.432558"
       height="127.25"
       x="104.63968"
       y="154.57085" />
    <path
       style="opacity:1;fill:#dd8d1a;fill-opacity:1;fill-rule:nonzero;stroke:none;stroke-width:0.60481024;stroke-miterlimit:4;stroke-dasharray:none;stroke-opacity:1"
       d="m 96.506252,184.9224 a 2.230078,9.1231317 0 0 0 -2.230355,9.12296 2.230078,9.1231317 0 0 0 2.230355,9.12347 2.230078,9.1231317 0 0 0 0.234093,-0.061 v 0.0584 h 1.160137 7.002158 1.16065 v -0.0584 a 2.230078,9.1231317 0 0 0 0.2341,0.061 2.230078,9.1231317 0 0 0 2.23035,-9.12347 2.230078,9.1231317 0 0 0 -2.23035,-9.12296 2.230078,9.1231317 0 0 0 -0.2341,0.0527 v -0.0501 h -1.16065 -7.002158 -1.160137 v 0.0501 a 2.230078,9.1231317 0 0 0 -0.234093,-0.0527 z m 20.908288,0 a 2.230078,9.1231317 0 0 0 -2.23035,9.12296 2.230078,9.1231317 0 0 0 2.23035,9.12347 2.230078,9.1231317 0 0 0 0.23461,-0.061 v 0.0584 h 1.16014 7.00215 1.16014 v -0.0584 a 2.230078,9.1231317 0 0 0 0.23461,0.061 2.230078,9.1231317 0 0 0 2.22984,-9.12347 2.230078,9.1231317 0 0 0 -2.22984,-9.12296 2.230078,9.1231317 0 0 0 -0.23461,0.0527 v -0.0501 h -1.16014 -7.00215 -1.16014 v 0.0501 a 2.230078,9.1231317 0 0 0 -0.23461,-0.0527 z"
       id="path6306"
       inkscape:connector-curvature="0" />
    <path
       style="display:inline;opacity:1;fill:#744b0e;fill-opacity:1;fill-rule:nonzero;stroke:none;stroke-width:0.60481024;stroke-miterlimit:4;stroke-dasharray:none;stroke-opacity:1"
       d="m 96.506252,184.8723 a 2.230078,9.1231318 0 0 0 -1.82108,3.87418 h 13.434838 a 2.230078,9.1231318 0 0 0 -1.82262,-3.87418 2.230078,9.1231318 0 0 0 -0.2341,0.0527 v -0.0501 h -1.16065 -7.002159 -1.160137 v 0.0501 a 2.230078,9.1231318 0 0 0 -0.222723,-0.0527 z m 20.908278,0 a 2.230078,9.1231318 0 0 0 -1.82107,3.87418 h 13.43483 a 2.230078,9.1231318 0 0 0 -1.82211,-3.87418 2.230078,9.1231318 0 0 0 -0.23461,0.0527 v -0.0501 h -1.16014 -7.00215 -1.16014 v 0.0501 a 2.230078,9.1231318 0 0 0 -0.22272,-0.0527 z"
       id="path6306-6"
       inkscape:connector-curvature="0" />
    <path
       style="display:inline;opacity:1;fill:#744b0e;fill-opacity:1;fill-rule:nonzero;stroke:none;stroke-width:0.60481024;stroke-miterlimit:4;stroke-dasharray:none;stroke-opacity:1"
       d="m 96.506252,203.11043 a 2.230078,9.1231318 0 0 1 -1.82108,-3.87418 h 13.434838 a 2.230078,9.1231318 0 0 1 -1.82262,3.87418 2.230078,9.1231318 0 0 1 -0.2341,-0.0527 v 0.0501 h -1.16065 -7.002159 -1.160137 v -0.0501 a 2.230078,9.1231318 0 0 1 -0.222723,0.0527 z m 20.908278,0 a 2.230078,9.1231318 0 0 1 -1.82107,-3.87418 h 13.43483 a 2.230078,9.1231318 0 0 1 -1.82211,3.87418 2.230078,9.1231318 0 0 1 -0.23461,-0.0527 v 0.0501 h -1.16014 -7.00215 -1.16014 v -0.0501 a 2.230078,9.1231318 0 0 1 -0.22272,0.0527 z"
       id="path6306-6-4"
       inkscape:connector-curvature="0" />
    <rect
       style="display:inline;opacity:1;fill:#c88018;fill-opacity:1;fill-rule:nonzero;stroke:none;stroke-width:0.81892878;stroke-miterlimit:4;stroke-dasharray:none;stroke-opacity:1"
       id="rect6221-0"
       width="2.1344974"
       height="110.3568"
       x="106.77418"
       y="154.57085" />
    <path
       style="display:inline;opacity:1;fill:#c88018;fill-opacity:1;fill-rule:nonzero;stroke:none;stroke-width:0.60481024;stroke-miterlimit:4;stroke-dasharray:none;stroke-opacity:1"
       d="m 94.716169,188.74648 a 2.230078,9.1231318 0 0 0 -0.338482,2.83446 H 108.45642 A 2.230078,9.1231318 0 0 0 108.12,188.74648 Z m 20.908281,0 a 2.230078,9.1231318 0 0 0 -0.33848,2.83446 h 14.07873 a 2.230078,9.1231318 0 0 0 -0.33641,-2.83446 z"
       id="path6306-8"
       inkscape:connector-curvature="0" />
    <path
       style="display:inline;opacity:1;fill:#c88018;fill-opacity:1;fill-rule:nonzero;stroke:none;stroke-width:0.60481024;stroke-miterlimit:4;stroke-dasharray:none;stroke-opacity:1"
       d="m 94.716179,199.23625 a 2.230078,9.1231318 0 0 1 -0.338482,-2.83446 h 14.078733 a 2.230078,9.1231318 0 0 1 -0.33642,2.83446 z m 20.908281,0 a 2.230078,9.1231318 0 0 1 -0.33848,-2.83446 h 14.07873 a 2.230078,9.1231318 0 0 1 -0.33641,2.83446 z"
       id="path6306-8-0"
       inkscape:connector-curvature="0" />
    <rect
       style="opacity:1;fill:#744b0e;fill-opacity:1;fill-rule:nonzero;stroke:none;stroke-width:0.83220863;stroke-miterlimit:4;stroke-dasharray:none;stroke-opacity:1"
       id="rect6221"
       width="2.1344972"
       height="113.96494"
       x="104.63968"
       y="154.57085" />
    <rect
       style="display:inline;opacity:1;fill:#744b0e;fill-opacity:1;fill-rule:nonzero;stroke:none;stroke-width:0.82140422;stroke-miterlimit:4;stroke-dasharray:none;stroke-opacity:1"
       id="rect6221-8"
       width="2.1344974"
       height="111.02497"
       x="-119.07224"
       y="154.57085"
       transform="scale(-1,1)" />
    <rect
       style="display:inline;opacity:1;fill:#c88018;fill-opacity:1;fill-rule:nonzero;stroke:none;stroke-width:0.82294238;stroke-miterlimit:4;stroke-dasharray:none;stroke-opacity:1"
       id="rect6221-0-1"
       width="2.1344974"
       height="111.44117"
       x="-116.93774"
       y="154.57085"
       transform="scale(-1,1)" />
    <rect
       style="opacity:1;fill:#ffffff;fill-opacity:0.29591836;fill-rule:nonzero;stroke:none;stroke-width:1.16905546;stroke-miterlimit:4;stroke-dasharray:none;stroke-opacity:1"
       id="rect6219"
       width="2.8598139"
       height="111.44119"
       x="111.94342"
       y="154.57085" />
    <g
       id="g6431"
       transform="matrix(0.79042606,0,0,0.79042606,23.442094,61.428051)">
      <path
         inkscape:connector-curvature="0"
         id="path6143"
         d="M 111.85596,252.36599 A 17.535568,17.105249 0 0 0 94.320596,269.4714 17.535568,17.105249 0 0 0 111.85596,286.57629 17.535568,17.105249 0 0 0 129.39133,269.4714 17.535568,17.105249 0 0 0 111.85596,252.36599 Z"
         style="opacity:1;fill:#986012;fill-opacity:1;fill-rule:nonzero;stroke:none;stroke-width:0.63899362;stroke-miterlimit:4;stroke-dasharray:none;stroke-opacity:1" />
      <path
         inkscape:connector-curvature="0"
         id="path6143-3"
         d="m 111.85596,258.36237 a 11.388298,11.108832 0 0 0 -11.38816,11.10893 11.388298,11.108832 0 0 0 11.38816,11.1086 11.388298,11.108832 0 0 0 11.38817,-11.1086 11.388298,11.108832 0 0 0 -11.38817,-11.10893 z"
         style="display:inline;opacity:1;fill:#efbe78;fill-opacity:1;fill-rule:nonzero;stroke:none;stroke-width:0.41498801;stroke-miterlimit:4;stroke-dasharray:none;stroke-opacity:1" />
      <path
         inkscape:connector-curvature="0"
         id="path6143-3-7"
         d="m 111.8557,254.98082 a 14.854843,14.49031 0 0 0 -14.854385,14.49059 14.854843,14.49031 0 0 0 14.854385,14.49006 14.854843,14.49031 0 0 0 14.85491,-14.49006 14.854843,14.49031 0 0 0 -14.85491,-14.49059 z m 0,3.38171 a 11.388298,11.108832 0 0 1 11.38845,11.10888 11.388298,11.108832 0 0 1 -11.38845,11.10837 11.388298,11.108832 0 0 1 -11.38794,-11.10837 11.388298,11.108832 0 0 1 11.38794,-11.10888 z"
         style="display:inline;opacity:1;fill:#dd8d1a;fill-opacity:1;fill-rule:nonzero;stroke:none;stroke-width:0.54130852;stroke-miterlimit:4;stroke-dasharray:none;stroke-opacity:1" />
      <ellipse
         ry="4.7440343"
         rx="4.6103992"
         cy="263.72394"
         cx="114.12309"
         id="path6217"
         style="opacity:1;fill:#ffffff;fill-opacity:0.32653061;fill-rule:nonzero;stroke:none;stroke-width:0.79374999;stroke-miterlimit:4;stroke-dasharray:none;stroke-opacity:1" />
    </g>
    <g
       id="g6301"
       transform="matrix(1.1448961,0,0,1.1448961,-16.697449,-21.061489)">
      <path
         inkscape:connector-curvature="0"
         id="path6143-0"
         d="m 112.03631,147.0761 a 8.4780544,8.2700046 0 0 0 -8.47796,8.27008 8.4780544,8.2700046 0 0 0 8.47796,8.26984 8.4780544,8.2700046 0 0 0 8.47795,-8.26984 8.4780544,8.2700046 0 0 0 -8.47795,-8.27008 z"
         style="display:inline;opacity:1;fill:#986012;fill-opacity:1;fill-rule:nonzero;stroke:none;stroke-width:0.30893913;stroke-miterlimit:4;stroke-dasharray:none;stroke-opacity:1" />
      <path
         inkscape:connector-curvature="0"
         id="path6143-3-5"
         d="m 112.03631,149.97522 a 5.505987,5.3708714 0 0 0 -5.50592,5.37092 5.505987,5.3708714 0 0 0 5.50592,5.37075 5.505987,5.3708714 0 0 0 5.50593,-5.37075 5.505987,5.3708714 0 0 0 -5.50593,-5.37092 z"
         style="display:inline;opacity:1;fill:#efbe78;fill-opacity:1;fill-rule:nonzero;stroke:none;stroke-width:0.2006374;stroke-miterlimit:4;stroke-dasharray:none;stroke-opacity:1" />
      <path
         inkscape:connector-curvature="0"
         id="path6143-3-7-4"
         d="m 112.03618,148.34032 a 7.1819838,7.0057403 0 0 0 -7.18176,7.00587 7.1819838,7.0057403 0 0 0 7.18176,7.00562 7.1819838,7.0057403 0 0 0 7.18202,-7.00562 7.1819838,7.0057403 0 0 0 -7.18202,-7.00587 z m 0,1.63497 a 5.505987,5.3708714 0 0 1 5.50606,5.3709 5.505987,5.3708714 0 0 1 -5.50606,5.37065 5.505987,5.3708714 0 0 1 -5.50581,-5.37065 5.505987,5.3708714 0 0 1 5.50581,-5.3709 z"
         style="display:inline;opacity:1;fill:#dd8d1a;fill-opacity:1;fill-rule:nonzero;stroke:none;stroke-width:0.26171052;stroke-miterlimit:4;stroke-dasharray:none;stroke-opacity:1" />
      <ellipse
         ry="2.2936344"
         rx="2.2290249"
         cy="152.4301"
         cx="112.83005"
         id="path6217-9"
         style="display:inline;opacity:1;fill:#ffffff;fill-opacity:0.32653061;fill-rule:nonzero;stroke:none;stroke-width:0.38376033;stroke-miterlimit:4;stroke-dasharray:none;stroke-opacity:1" />
    </g>
  </g>
</svg>
